<?xml version="1.0" encoding="utf-8"?>
<!-- Generator: Adobe Illustrator 24.1.2, SVG Export Plug-In . SVG Version: 6.00 Build 0)  -->
<svg version="1.1" id="Layer_1" xmlns="http://www.w3.org/2000/svg" xmlns:xlink="http://www.w3.org/1999/xlink" x="0px" y="0px"
	 viewBox="0 0 74 80" style="enable-background:new 0 0 74 80;" xml:space="preserve">
<style type="text/css">
	.st0{fill:none;stroke:#000000;stroke-width:2;stroke-miterlimit:10;}
	.st1{fill:none;stroke:#000000;stroke-width:0.5;stroke-miterlimit:10;}
</style>
<g>
	<polyline class="st0" points="4,77 4,3 61,3 61,40 43,40 69,77 51,77 25,40 25,77 24,77 3,77 	"/>
	<rect x="25" y="13" class="st0" width="23" height="16"/>
	<line class="st1" x1="4" y1="68.5" x2="10.5" y2="68.5"/>
	<line class="st1" x1="10.5" y1="70" x2="10.5" y2="58.5"/>
	<line class="st1" x1="35.21" y1="46.55" x2="28.71" y2="37.55"/>
	<line class="st1" x1="51.96" y1="30.5" x2="51.96" y2="18.5"/>
	<line class="st1" x1="19.96" y1="61.6" x2="19.96" y2="49.5"/>
	<line class="st1" x1="19.96" y1="49.9" x2="19.96" y2="37.8"/>
	<line class="st1" x1="40.96" y1="51.5" x2="40.96" y2="43.8"/>
	<line class="st1" x1="12.96" y1="40.5" x2="12.96" y2="25.5"/>
	<line class="st1" x1="15.75" y1="43.75" x2="15.75" y2="49.25"/>
	<line class="st1" x1="36.96" y1="44.9" x2="36.96" y2="32.8"/>
	<line class="st1" x1="19.96" y1="25.9" x2="19.96" y2="13.8"/>
	<line class="st1" x1="16.01" y1="16.85" x2="3.91" y2="16.85"/>
	<line class="st1" x1="44.91" y1="12.85" x2="57.01" y2="12.85"/>
	<line class="st1" x1="56.96" y1="24.9" x2="56.96" y2="12.8"/>
	<line class="st1" x1="8.96" y1="28.9" x2="8.96" y2="16.8"/>
	<line class="st1" x1="12.96" y1="22.5" x2="12.96" y2="10.5"/>
	<polyline class="st1" points="39.01,8.85 26.91,8.85 26.96,8.5 26.96,2.8 	"/>
	<line class="st1" x1="3.91" y1="43.85" x2="16.01" y2="43.85"/>
	<line class="st1" x1="47.96" y1="34.5" x2="47.96" y2="29.8"/>
	<line class="st1" x1="3.91" y1="6.85" x2="16.01" y2="6.85"/>
	<line class="st1" x1="7.96" y1="73.9" x2="7.96" y2="61.8"/>
	<line class="st1" x1="7.96" y1="57.9" x2="7.96" y2="45.8"/>
	<line class="st1" x1="16.91" y1="28.85" x2="29.01" y2="28.85"/>
	<line class="st1" x1="24.96" y1="20.9" x2="24.96" y2="8.8"/>
	<line class="st1" x1="16.96" y1="31.9" x2="16.96" y2="19.8"/>
	<line class="st1" x1="16.91" y1="34.85" x2="29.01" y2="34.85"/>
	<line class="st1" x1="53.96" y1="18.9" x2="53.96" y2="6.8"/>
	<line class="st1" x1="11.91" y1="52.85" x2="24.01" y2="52.85"/>
	<line class="st1" x1="32.96" y1="43.5" x2="32.96" y2="32.5"/>
	<polyline class="st1" points="26,66.5 14.5,66.5 14.5,66.65 14.5,60 	"/>
	<line class="st1" x1="11.5" y1="71.85" x2="20.5" y2="71.85"/>
	<polyline class="st1" points="8.96,31.8 8.96,40.5 8.5,40.85 19.01,40.85 	"/>
	<line class="st1" x1="51.96" y1="76.9" x2="51.96" y2="64.8"/>
	<line class="st1" x1="51.91" y1="71.85" x2="59.5" y2="71.85"/>
	<line class="st1" x1="48.5" y1="66" x2="48.5" y2="60"/>
	<line class="st1" x1="45.5" y1="60.17" x2="55.69" y2="60.17"/>
	<line class="st1" x1="45.64" y1="60.22" x2="45.5" y2="51.5"/>
	<line class="st1" x1="61.69" y1="25.17" x2="54.5" y2="25.17"/>
	<line class="st1" x1="56.62" y1="39.92" x2="56.62" y2="28.5"/>
	<line class="st1" x1="48.62" y1="18.58" x2="48.62" y2="7.16"/>
	<line class="st1" x1="53.62" y1="39.5" x2="53.62" y2="32.5"/>
	<line class="st1" x1="54.5" y1="28.16" x2="48.62" y2="28.16"/>
	<line class="st1" x1="54.5" y1="21.87" x2="51.91" y2="21.87"/>
	<line class="st1" x1="51.5" y1="15.87" x2="48.91" y2="15.87"/>
	<line class="st1" x1="3.5" y1="10.77" x2="9.95" y2="10.77"/>
	<line class="st1" x1="21.96" y1="17.99" x2="21.96" y2="6.57"/>
</g>
</svg>
