<svg width="53" height="53" viewBox="0 0 53 53" fill="none" xmlns="http://www.w3.org/2000/svg">
<path d="M12 14L14.6517 37.7929L26.5503 40.4351L38.4825 37.7888L41.1368 14H12ZM35.6275 19.4417L34.7307 27.4831L34.1095 33.0314L34.0551 33.5243L26.5736 35.1839L19.1024 33.5243L18.5912 28.9419H22.2524L22.5125 31.2693L26.5787 32.1462L26.5891 32.1442H26.5917L30.6476 31.2683L31.0734 27.4841H22.5591L22.4866 26.8288L22.3197 25.3493L22.2329 24.5666H31.3969L31.7308 21.5786H17.772L17.6995 20.9222L17.5325 19.4427L17.4458 18.66H35.7168L35.6288 19.4427L35.6275 19.4417Z" fill="#363636"/>
<rect x="1.5" y="1.5" width="50" height="50" rx="7.5" stroke="#363636" stroke-width="3"/>
</svg>
