<svg width="53" height="53" viewBox="0 0 53 53" fill="none" xmlns="http://www.w3.org/2000/svg">
<path d="M10.8123 22.4239V23.851L10.6854 23.8314C9.906 23.7172 9.07607 23.7629 8.36913 23.9608C6.80377 24.4003 5.92593 25.5653 6.00491 27.1012C6.04246 27.7897 6.20689 28.2639 6.56165 28.711C7.0679 29.3517 7.88748 29.7324 9.08642 29.8912C9.96815 30.0087 11.7614 29.926 12.9746 29.7106L13.0665 29.6932V21.0011H10.811V22.4249L10.8123 22.4239ZM10.6518 25.3347L10.8123 25.3695V28.3977L10.5832 28.4151C9.69107 28.4869 9.10326 28.3608 8.72778 28.0127C8.43387 27.7429 8.28368 27.3579 8.28368 26.8847C8.28368 26.046 8.75885 25.4782 9.59526 25.3173C9.83738 25.2716 10.4045 25.2803 10.6518 25.3347ZM14.4001 21.9616V22.9231H16.6556L16.6491 21.967L16.6387 21.0141L15.5214 21.0054L14.4001 21V21.9616ZM20.5165 23.7727C19.7202 23.8216 18.8864 23.9935 18.186 24.2524L17.9879 24.3274V25.0508C17.9879 25.6164 17.9982 25.7687 18.0319 25.7567C19.2386 25.3227 19.8355 25.203 20.6771 25.2226C21.0318 25.2313 21.1082 25.2422 21.1898 25.2944C21.3542 25.3945 21.4047 25.5185 21.4047 25.8144C21.4047 25.9612 21.3982 26.0808 21.3879 26.0808C21.2895 26.0808 20.6227 26.1526 20.3042 26.1983C18.6676 26.4278 17.8195 26.8988 17.5943 27.694C17.5295 27.9322 17.5295 28.5065 17.5943 28.7447C17.7043 29.1298 17.9361 29.417 18.3051 29.6149C19.0703 30.0315 20.2252 30.074 23.242 29.7955L23.4543 29.7759V27.62C23.4543 26.4344 23.4375 25.3466 23.4206 25.203C23.3184 24.3959 22.86 23.9913 21.8592 23.8314C21.5795 23.7879 20.8376 23.7563 20.5165 23.7737V23.7727ZM21.507 27.9442V28.5729L21.2092 28.6099C20.7444 28.6675 20.1229 28.661 19.9274 28.5979C19.5713 28.4826 19.4315 28.1476 19.6128 27.8539C19.7112 27.6929 19.9546 27.5613 20.3171 27.4721C20.4945 27.4286 21.2571 27.323 21.4306 27.3176L21.5057 27.3143V27.9431L21.507 27.9442ZM27.5548 23.7759C26.7443 23.8042 25.535 23.9684 24.6779 24.161L24.5484 24.1893V29.8705H26.8038L26.8103 27.6374L26.8207 25.4075L27.0602 25.3531C27.2311 25.3162 27.4292 25.2988 27.7607 25.2955C28.1776 25.2922 28.2397 25.2988 28.4029 25.3618C28.6243 25.4445 28.7654 25.5772 28.8431 25.7719C28.8975 25.9101 28.9039 26.1015 28.9143 27.8963L28.9246 29.8716H31.1451L31.1309 27.6265C31.1205 25.6088 31.1141 25.3586 31.0623 25.1954C30.96 24.8713 30.8059 24.6526 30.5263 24.4144C30.0886 24.0446 29.5008 23.8521 28.6023 23.789C28.1853 23.7607 28.0662 23.7574 27.5535 23.777L27.5548 23.7759ZM42.5701 23.7988C41.2546 24 40.312 24.6624 39.9158 25.6729C39.7281 26.1461 39.6763 26.4822 39.697 27.0827C39.7112 27.4416 39.7346 27.6592 39.7825 27.8354C40.0621 28.8372 40.804 29.5399 41.911 29.8564C42.8575 30.1294 44.1626 30.0837 45.0236 29.7476C46.1242 29.3234 46.7974 28.4902 46.9606 27.3589C47.1522 26.0504 46.6356 24.8669 45.6244 24.2817C45.1842 24.0261 44.832 23.9054 44.2545 23.8107C43.8583 23.7444 42.9559 23.7389 42.5701 23.7988ZM43.8273 25.3347C44.1898 25.4467 44.463 25.7426 44.6132 26.1809C44.6818 26.3789 44.6922 26.4768 44.6922 26.8847C44.6922 27.2893 44.6818 27.3894 44.6132 27.5819C44.463 28.0236 44.2338 28.2824 43.8609 28.4293C43.6939 28.4956 43.6214 28.5065 43.3417 28.5065C43.0647 28.5065 42.9896 28.4945 42.829 28.4315C42.46 28.2879 42.2386 28.0551 42.0845 27.6646C41.968 27.3666 41.9369 26.6748 42.0237 26.3212C42.126 25.9112 42.3305 25.612 42.6426 25.4336C42.974 25.2411 43.4181 25.2041 43.8286 25.3336L43.8273 25.3347ZM36.1494 23.802C35.2508 23.8825 34.5775 24.0207 33.9897 24.2469C32.5888 24.7864 31.8611 25.7687 31.8611 27.1142C31.8611 28.4347 32.5784 29.3908 33.8434 29.7607C34.5607 29.9706 35.5279 29.9793 36.2115 29.7803C36.3785 29.7313 36.5197 29.6976 36.5261 29.703C36.5533 29.7259 36.4744 30.2687 36.42 30.4155C36.2452 30.9061 35.8969 31.1845 35.2793 31.3259C34.9621 31.401 33.8823 31.401 33.4679 31.3259C33.1054 31.2629 32.603 31.1247 32.2819 31.0018L32.0321 30.9072V32.6465L32.4347 32.7498C33.1184 32.9249 33.6958 33 34.4338 33C36.1183 33.0032 37.3172 32.5671 38.0216 31.6969C38.3362 31.3064 38.5382 30.8104 38.634 30.1784C38.6819 29.8564 38.6923 26.5388 38.6482 25.7698L38.6249 25.3586L38.8878 25.3673L39.1545 25.3793L39.5274 24.7244C39.732 24.3655 39.8925 24.0642 39.886 24.0555C39.855 24.0326 39.1752 23.9293 38.6495 23.8695C38.2663 23.826 37.8947 23.8096 37.2111 23.8009C36.7048 23.7977 36.2271 23.7977 36.152 23.8042L36.1494 23.802ZM36.4873 25.7426C36.4977 26.0014 36.5145 26.678 36.5249 27.2491L36.5456 28.2879L36.4161 28.3172C35.9111 28.4315 35.4114 28.4315 35.0631 28.3227C34.4817 28.1356 34.1878 27.7168 34.158 27.037C34.1347 26.4681 34.2642 26.1037 34.6021 25.8056C34.975 25.475 35.5486 25.2977 36.2905 25.2803L36.4679 25.277L36.4886 25.7426H36.4873ZM14.4001 26.0874C14.4001 29.3397 14.3522 29.765 13.9314 30.4536C13.6686 30.8843 13.183 31.2433 12.4554 31.55C12.2702 31.6272 12.2133 31.6621 12.2508 31.6795C12.278 31.6936 12.7467 31.8807 13.2892 32.0961L14.2797 32.4898L14.4881 32.4006C15.814 31.8241 16.4147 31.017 16.5869 29.5703C16.6102 29.3811 16.6348 28.1954 16.6452 26.5769L16.6659 23.901H14.4001V26.0885V26.0874Z" fill="#363636"/>
<rect x="1.5" y="1.5" width="50" height="50" rx="7.5" stroke="#363636" stroke-width="3"/>
</svg>
