<svg width="53" height="53" viewBox="0 0 53 53" fill="none" xmlns="http://www.w3.org/2000/svg">
<path d="M26.5 43C16.835 43 9 35.3888 9 26C9 16.6112 16.835 9 26.5 9C36.165 9 44 16.6112 44 26C44 35.3888 36.165 43 26.5 43ZM41.0833 26.1305H31.6747V28.7292H38.1255C37.1846 32.6283 34.2268 35.8769 30.3299 37.1774L14.8727 22.2314C16.4857 17.6823 21.0554 14.4331 26.2983 14.4331C30.3305 14.4331 33.9604 16.3835 36.2444 19.3723L38.2613 17.6834C35.5717 14.1721 31.2713 11.8333 26.2983 11.8333C19.3089 11.8333 13.395 16.6423 11.9167 23.011L29.6578 40.1667C36.1085 38.6069 41.0833 32.8881 41.0833 26.1294V26.1305ZM11.9167 26C11.9167 29.6731 13.4019 33.2142 16.2378 35.969C19.0736 38.7238 22.8548 40.1667 26.5 40.1667L11.9167 26Z" fill="#363636"/>
<rect x="1.5" y="1.5" width="50" height="50" rx="7.5" stroke="#363636" stroke-width="3"/>
</svg>
