<svg width="53" height="53" viewBox="0 0 53 53" fill="none" xmlns="http://www.w3.org/2000/svg">
<path d="M14.0011 15L16.3671 40.2011L26.9845 43L37.6318 40.1967L40 15H14H14.0011ZM18.9165 20.9806L18.8385 20.1509H26.9891V23.2412H22.396L22.693 26.4066H26.9891V29.4969H19.717L18.9165 20.9795V20.9806ZM34.4757 27.2374L33.7107 35.3742L33.6614 35.8962L26.9845 37.6534L20.3168 35.8962L19.8604 31.0432H23.1277L23.3594 33.5083L26.9868 34.4369L30.6166 33.5061L30.9939 29.498H26.9971V26.4077H34.5514L34.4722 27.2374H34.4757ZM35.0651 20.9806L34.9172 22.5475L34.8518 23.2423H27.0006V20.152H35.1431L35.0651 20.9806Z" fill="#363636"/>
<rect x="1.5" y="1.5" width="50" height="50" rx="7.5" stroke="#363636" stroke-width="3"/>
</svg>
