<svg width="53" height="53" viewBox="0 0 53 53" fill="none" xmlns="http://www.w3.org/2000/svg">
<path d="M16.9683 17.2987H22.2896V28.9292C22.2896 34.1704 19.0679 36 13.9211 36C12.6613 36 11.0498 35.8363 10 35.5631L10.5958 32.2046C11.3307 32.396 12.2769 32.5321 13.3267 32.5321C15.5681 32.5321 16.9683 31.74 16.9683 28.9015V17.2987ZM26.9101 31.4414C28.3102 32.0144 30.5517 32.5885 32.8272 32.5885C35.2785 32.5885 36.5737 31.7965 36.5737 30.5686C36.5737 29.4491 35.453 28.7666 32.6172 28.0022C28.6961 26.9104 26.1057 25.2179 26.1057 22.5144C26.1057 19.375 29.5019 17 35.0331 17C37.7285 17 39.655 17.4093 41.0552 17.9281L39.865 21.2588C38.9542 20.9038 37.2391 20.385 34.9636 20.385C32.6527 20.385 31.5319 21.2312 31.5319 22.1593C31.5319 23.333 32.8271 23.8518 35.9084 24.7799C40.0749 25.9812 42 27.6737 42 30.2942C42 33.3794 38.9897 36 32.5122 36C29.8168 36 27.1555 35.427 25.8248 34.8529L26.9101 31.4403V31.4414Z" fill="#363636"/>
<rect x="1.5" y="1.5" width="50" height="50" rx="7.5" stroke="#363636" stroke-width="3"/>
</svg>
