<?xml version="1.0" encoding="utf-8"?>
<!-- Generator: Adobe Illustrator 24.1.2, SVG Export Plug-In . SVG Version: 6.00 Build 0)  -->
<svg version="1.1" id="Layer_1" xmlns="http://www.w3.org/2000/svg" xmlns:xlink="http://www.w3.org/1999/xlink" x="0px" y="0px"
	 viewBox="0 0 263 263" style="enable-background:new 0 0 263 263;" xml:space="preserve">
<style type="text/css">
	.st0{fill:none;stroke:#363636;stroke-width:11.2569;stroke-linecap:round;stroke-linejoin:round;stroke-miterlimit:10;}
	.st1{fill:none;stroke:#FACD2D;stroke-width:6;stroke-linecap:round;stroke-linejoin:round;}
	.st2{fill:#FACD2D;}
</style>
<path class="st0" d="M61.6,66.8c-15.8,17.1-26,39.8-26,64.9c0,37.1,22.1,69,51.3,85c0,4.9,0,29.4,0,32.3C39.6,231.1,6,185.3,6,131.5
	C6,62.2,62.4,6,131.7,6C201,6,257.3,62.2,257.3,131.5c0,69.3-56.7,125.5-125.9,125.5c-5.9,0-12.3-0.4-17.6-1.1c0-0.1,0-0.1,0-0.1
	v-87.6c0,0,1.5,0,18,0c20,0,36.2-15.6,36.2-35.6s-16.2-35.6-36.2-35.6h-16.1"/>
<path class="st0" d="M176.9,46.8c-13.4-7.1-28.7-11.2-45-11.2c-17.6,0-34,4.7-48.1,12.9"/>
<path class="st0" d="M145.5,226.5c46.5-6.7,82.2-46.7,82.2-95c0-13.2-2.6-25.7-7.4-37.1"/>
<path class="st0" d="M145.5,196.2c29.9-6.3,52.4-32.9,52.4-64.7c0-36.5-29.6-66.1-66.1-66.1c-36.5,0-66.1,29.6-66.1,66.1
	c0,30.1,20.1,55.5,47.6,63.5"/>
<path class="st0" d="M196.2,59.6c2.6,2,5.4,4.4,8.3,7.7c2.9,3.2,5.1,6.3,6.8,9l23.4-16.7"/>
<path className="agent" class="st1" d="M128,133H81v-1c0-10.1,3-19.9,8.6-28.3c5.6-8.4,13.6-14.9,22.9-18.8c9.3-3.9,19.6-4.9,29.5-2.9
	c9.9,2,19,6.8,26.1,14c7.1,7.1,12,16.2,14,26.1c2,9.9,1,20.1-2.9,29.5s-10.4,17.3-18.8,22.9S142.1,183,132,183h-1v30h1
	c20.2,0,39.7-7.6,54.6-21.2c14.9-13.6,24.2-32.3,26.1-52.5c1.8-20.1-3.9-40.2-16.1-56.3c-12.2-16.1-30-27.1-49.9-30.7
	c-19.9-3.7-40.4,0.3-57.5,11C72,74,59.4,90.7,54,110.2c-5.4,19.5-3.4,40.3,5.7,58.3c9.1,18,20.4,30.8,39.3,38l1,0.5v49"/>
<circle class="st2" cx="128" cy="133" r="8"/>
</svg>
