<svg width="151" height="151" viewBox="0 0 151 151" fill="none" xmlns="http://www.w3.org/2000/svg">
<path d="M35.1115 38.1449C25.9677 48.0254 20.0741 61.1127 20.0741 75.63C20.0741 97.0377 32.8147 115.499 49.7155 124.729C49.7155 127.546 49.7155 141.716 49.7155 143.363C22.4142 133.049 3 106.571 3 75.5C3 35.4582 35.5882 3 75.63 3C115.672 3 148.173 35.4582 148.173 75.5C148.173 115.542 115.412 148 75.4133 148C72.0332 148 68.3063 147.783 65.2729 147.35C65.2729 147.307 65.2729 147.263 65.2729 147.263V96.6476C65.2729 96.6476 66.1396 96.6476 75.6733 96.6476C87.2439 96.6476 96.6043 87.6339 96.6043 76.0634C96.6043 64.4928 87.2439 55.4791 75.6733 55.4791H66.3562" stroke="#FFE24A" stroke-width="5.63359" stroke-miterlimit="10" stroke-linecap="round" stroke-linejoin="round"/>
<path d="M101.718 26.5744C93.9608 22.4576 85.1204 20.1174 75.7167 20.1174C65.5762 20.1174 56.0858 22.8476 47.9387 27.5711" stroke="#FFE24A" stroke-width="5.63359" stroke-miterlimit="10" stroke-linecap="round" stroke-linejoin="round"/>
<path d="M83.6037 130.363C110.472 126.506 131.099 103.408 131.099 75.5C131.099 67.873 129.582 60.636 126.809 54.049" stroke="#FFE24A" stroke-width="5.63359" stroke-miterlimit="10" stroke-linecap="round" stroke-linejoin="round"/>
<path d="M83.5604 112.898C100.851 109.258 113.852 93.9175 113.852 75.5433C113.852 54.439 96.7343 37.3649 75.6734 37.3649C54.6124 37.3649 37.4949 54.4823 37.4949 75.5433C37.4949 92.9208 49.1088 107.611 65.0129 112.205" stroke="#FFE24A" stroke-width="5.63359" stroke-miterlimit="10" stroke-linecap="round" stroke-linejoin="round"/>
<path d="M112.855 33.9848C114.328 35.1115 115.975 36.5415 117.665 38.4483C119.355 40.3117 120.612 42.0885 121.565 43.6485L135.086 34.0281" stroke="#FFE24A" stroke-width="5.63359" stroke-miterlimit="10" stroke-linecap="round" stroke-linejoin="round"/>
</svg>
