<svg width="31" height="31" viewBox="0 0 31 31" fill="none" xmlns="http://www.w3.org/2000/svg">
<path d="M27.6967 4.76904H3.30331C2.13895 4.76904 1.19232 5.77505 1.19232 7.01161V23.988C1.19232 25.2246 2.13895 26.2306 3.30331 26.2306H27.6967C28.8611 26.2306 29.8077 25.2246 29.8077 23.988V7.01161C29.8077 5.77505 28.8611 4.76904 27.6967 4.76904ZM18.6795 15.5002L28.0192 8.75968V22.24L18.6795 15.5002ZM27.6967 6.5575C27.7605 6.5575 27.8252 6.59607 27.8814 6.65371L15.5 15.5894L3.11862 6.65371C3.1748 6.59607 3.23949 6.5575 3.30331 6.5575H27.6967ZM2.98078 22.24V8.75968L12.3199 15.4997L2.98078 22.24ZM3.30331 24.4421C3.23949 24.4421 3.1748 24.4034 3.11862 24.3458L13.8479 16.6025L14.9772 17.4175C15.004 17.437 15.035 17.4449 15.0632 17.4609C15.0908 17.4765 15.1166 17.4898 15.1455 17.5024C15.2599 17.5524 15.3786 17.5864 15.4989 17.5864C15.4993 17.5864 15.4996 17.5861 15.5 17.5861C15.5005 17.5861 15.5007 17.5864 15.5012 17.5864C15.6215 17.5864 15.7402 17.5524 15.8546 17.5024C15.8835 17.4898 15.9092 17.4765 15.9368 17.4609C15.965 17.4449 15.996 17.437 16.0228 17.4175L17.1516 16.6028L27.8814 24.3459C27.8252 24.4035 27.7605 24.4421 27.6967 24.4421H3.30331Z" fill="#363636"/>
</svg>
