<svg width="32" height="32" viewBox="0 0 32 32" fill="none" xmlns="http://www.w3.org/2000/svg">
<path d="M22.5337 18.7716C22.0781 18.7716 21.7885 18.9663 21.625 19.1298L19.7993 20.9567C19.7849 20.9712 19.7067 21.0096 19.5264 21.0096C18.5204 21.0096 16.3846 19.8906 14.2476 17.7524C11.375 14.881 10.7416 12.5024 11.0433 12.2007L12.8702 10.375C14.0745 9.17067 11.9435 6.68029 10.5661 5.30288C9.9411 4.67788 7.79567 2.64062 6.40384 2.64062C5.94831 2.64062 5.65865 2.83534 5.49519 2.9988L1.84134 6.65264C0.74519 7.7488 1.13581 9.8774 3.0048 12.9784C4.61779 15.6562 7.16827 18.7933 10.1875 21.8125C14.6454 26.2704 20.5529 30.7692 23.7007 30.7692H23.7019C24.5577 30.7692 25.0697 30.4375 25.3474 30.1587L29.0012 26.5048C30.2055 25.3017 28.0745 22.8113 26.6971 21.4339C26.0721 20.8089 23.9267 18.7716 22.5337 18.7716ZM24.0421 28.8534C24.0156 28.8798 23.9147 28.9231 23.7007 28.9231C21.863 28.9231 16.9591 25.9736 11.4928 20.5072C8.57692 17.5913 6.1238 14.5793 4.58533 12.0264C2.86658 9.17187 3.01322 8.09135 3.14663 7.95793L6.5637 4.54087C7.01923 4.72716 8.03966 5.38702 9.26081 6.60817C10.4832 7.83053 11.1418 8.85096 11.3281 9.30529L9.73798 10.8954C8.03485 12.601 10.2055 16.3221 12.9423 19.0577C15.2837 21.4002 17.8065 22.8558 19.5264 22.8558C20.3389 22.8558 20.8329 22.5337 21.1046 22.262L22.6947 20.6719C23.149 20.8582 24.1695 21.5168 25.3918 22.7392C26.613 23.9615 27.2728 24.9808 27.4591 25.4363L24.0421 28.8534Z" fill="#363636"/>
<path d="M27.6514 4.34875C25.6418 2.33793 22.9663 1.23096 20.119 1.23096C20.1178 1.23096 20.1166 1.23096 20.1166 1.23096C19.6069 1.23096 19.1935 1.64442 19.1935 2.15403C19.1935 2.66365 19.6069 3.07711 20.1166 3.07711C20.1178 3.07711 20.1178 3.07711 20.119 3.07711C22.4735 3.07711 24.6851 3.99177 26.3461 5.65403C28.0084 7.31629 28.923 9.52783 28.923 11.8836C28.923 12.3932 29.3365 12.8067 29.8461 12.8067C30.3557 12.8067 30.7692 12.3932 30.7692 11.8836C30.7704 9.03504 29.6622 6.35956 27.6514 4.34875Z" fill="#363636"/>
<path d="M18.899 6.7275C18.9002 6.7275 18.9002 6.7275 18.9014 6.7275C20.6058 6.7275 22.2055 7.38976 23.4086 8.59168C24.6106 9.79481 25.2728 11.3958 25.2728 13.1013C25.2728 13.6109 25.6863 14.0244 26.1959 14.0244C26.7055 14.0244 27.119 13.6109 27.119 13.1013C27.1202 10.903 26.2656 8.83808 24.7139 7.2864C23.1623 5.73592 21.0985 4.88135 18.9014 4.88135C18.9002 4.88135 18.899 4.88135 18.899 4.88135C18.3894 4.88135 17.976 5.29481 17.976 5.80442C17.976 6.31404 18.3894 6.7275 18.899 6.7275Z" fill="#363636"/>
<path d="M17.6815 10.3774C17.6827 10.3774 17.6827 10.3774 17.6839 10.3774C18.7368 10.3774 19.7272 10.7873 20.47 11.53C21.2139 12.274 21.6226 13.2644 21.6226 14.3185C21.6226 14.8281 22.0361 15.2416 22.5457 15.2416C23.0553 15.2416 23.4688 14.8281 23.4688 14.3185C23.47 12.7716 22.8678 11.3173 21.7752 10.2248C20.6839 9.13221 19.2308 8.53125 17.6839 8.53125C17.6827 8.53125 17.6815 8.53125 17.6815 8.53125C17.1719 8.53125 16.7584 8.94471 16.7584 9.45433C16.7584 9.96394 17.1719 10.3774 17.6815 10.3774Z" fill="#363636"/>
</svg>
