<svg width="53" height="53" viewBox="0 0 53 53" fill="none" xmlns="http://www.w3.org/2000/svg">
<path d="M23.3645 26.4646H30.5918C32.6038 26.4646 34.2102 24.8268 34.2102 22.8274V16.0123C34.2102 14.0723 32.5558 12.6153 30.5918 12.292C29.3484 12.0874 28.0595 11.9937 26.8227 12.0003C25.5859 12.0069 24.4038 12.1099 23.3645 12.292C20.3025 12.8265 19.7461 13.9469 19.7461 16.0123V18.7402H26.9815V19.6495H17.0297C14.927 19.6495 13.0858 20.8993 12.5094 23.2788C11.845 26.0054 11.8156 27.7065 12.5094 30.5532C13.0231 32.6727 14.2519 34.1824 16.3546 34.1824H18.8428V30.9121C18.8428 28.5498 20.9095 26.4659 23.3631 26.4659L23.3645 26.4646ZM22.9082 16.9216C22.1583 16.9216 21.5499 16.3132 21.5499 15.5623C21.5499 14.8074 22.157 14.1937 22.9082 14.1937C23.6553 14.1937 24.2664 14.8074 24.2664 15.5623C24.2664 16.3145 23.6567 16.9216 22.9082 16.9216ZM41.4442 23.2775C40.9252 21.2068 39.9326 19.6482 37.8259 19.6482H35.1108V22.8261C35.1108 25.2901 32.9987 27.3647 30.5905 27.3647H23.3631C21.3832 27.3647 19.7448 29.0408 19.7448 31.0019V37.817C19.7448 39.757 21.4499 40.8973 23.3631 41.4542C25.654 42.1207 27.8501 42.2407 30.5905 41.4542C32.4117 40.9329 34.2089 39.8824 34.2089 37.817V35.0891H26.9815V34.1798H37.8272C39.9299 34.1798 40.7131 32.7294 41.4456 30.5505C42.2007 28.3083 42.1687 26.1532 41.4456 23.2761L41.4442 23.2775ZM31.0468 36.909C31.7966 36.909 32.405 37.5174 32.405 38.2683C32.405 39.0232 31.7966 39.6369 31.0468 39.6369C30.2996 39.6369 29.6886 39.0232 29.6886 38.2683C29.6886 37.5161 30.2983 36.909 31.0468 36.909Z" fill="#363636"/>
<rect x="1.5" y="1.5" width="50" height="50" rx="7.5" stroke="#363636" stroke-width="3"/>
</svg>
