<svg width="53" height="53" viewBox="0 0 53 53" fill="none" xmlns="http://www.w3.org/2000/svg">
<path d="M44 23.2937C44 17.0549 36.3866 12 27 12C17.6134 12 10 17.0549 10 23.2937C10 28.8536 16.0451 33.4732 24.0096 34.4076V38H29.809V34.4308C31.231 34.2741 32.5945 34.0013 33.8702 33.6241L36.2169 38H42.7711L38.8268 31.4013C42.0162 29.3469 44 26.4741 44 23.2937ZM16.683 24.1353C16.683 19.8696 22.4706 16.4165 29.6041 16.4165C36.7377 16.4165 42.0045 18.7786 42.0045 24.1353C42.0045 27.0429 40.4537 29.0683 37.8905 30.3103C37.7501 30.2174 37.6155 30.142 37.516 30.0955C36.9191 29.7937 35.8892 29.4862 35.8892 29.4862C35.8892 29.4862 40.957 29.1147 40.957 24.1062C40.957 19.0978 35.6551 19.0049 35.6551 19.0049H24.0096V31.0938C19.6733 29.846 16.683 27.1996 16.683 24.1353ZM29.8558 26.358V23.1312C33.2382 23.1312 34.9938 22.7366 34.9938 24.7156C34.9938 26.8339 32.7583 26.358 29.8558 26.358ZM29.8031 30.5656H31.3597C31.9917 30.5656 32.4657 31.2446 32.7642 31.6799C31.822 31.7902 30.833 31.8424 29.8031 31.8482V30.5656Z" fill="#363636"/>
<rect x="1.5" y="1.5" width="50" height="50" rx="7.5" stroke="#363636" stroke-width="3"/>
</svg>
