<svg width="53" height="53" viewBox="0 0 53 53" fill="none" xmlns="http://www.w3.org/2000/svg">
<path d="M30 27C30 29.209 28.4329 31 26.5 31C24.5671 31 23 29.209 23 27C23 24.791 24.5671 23 26.5 23C28.4329 23 30 24.791 30 27Z" fill="#363636"/>
<path d="M26.5 39.7738C29.2976 42.4294 32.055 44 34.2777 44C35.0061 44 35.6958 43.8502 36.2694 43.5143C38.2611 42.3915 38.9895 39.5862 38.2998 35.584C38.1851 34.8728 38.0317 34.1631 37.8395 33.4142C38.6052 33.1902 39.2949 32.9648 39.9846 32.7408C43.8549 31.2822 46 29.2622 46 27.056C46 24.812 43.8549 22.792 39.9846 21.3711C39.2949 21.1094 38.6052 20.8854 37.8395 20.6978C38.0317 19.9503 38.1851 19.2391 38.2998 18.528C38.9508 14.4516 38.2238 11.6085 36.2306 10.4857C35.6556 10.1498 34.9659 10 34.2389 10C32.055 10 29.2574 11.5706 26.4613 14.2262C23.7024 11.5706 20.9435 10 18.7223 10C17.9939 10 17.3042 10.1498 16.7306 10.4857C14.7389 11.6085 14.0105 14.4138 14.7002 18.416C14.8149 19.1272 14.9683 19.8369 15.1605 20.5858C14.3948 20.8098 13.7051 21.0352 13.0154 21.2592C9.14515 22.7178 7 24.7378 7 26.944C7 29.188 9.14515 31.208 13.0154 32.6289C13.7051 32.8906 14.3948 33.1146 15.1605 33.3022C14.9683 34.0497 14.8149 34.7609 14.7002 35.472C14.0492 39.4742 14.7762 42.3174 16.7306 43.4023C17.3057 43.7397 17.9954 43.888 18.7223 43.888C20.945 43.9622 23.7039 42.3915 26.5 39.7738ZM24.3534 34.7245C25.0431 34.7623 25.7715 34.7623 26.4985 34.7623C27.2255 34.7623 27.9539 34.7623 28.6437 34.7245C27.9539 35.6218 27.2255 36.4449 26.4985 37.2303C25.7701 36.4449 25.0431 35.6218 24.3534 34.7245ZM19.6028 30.8721C19.9856 31.5076 20.3312 32.1068 20.7528 32.7045C19.5655 32.5547 18.4542 32.3671 17.3816 32.1431C17.7272 31.1338 18.1101 30.0853 18.5689 29.0382C18.8758 29.6359 19.2199 30.2729 19.6028 30.8706V30.8721ZM17.3801 21.8569C18.4527 21.6329 19.564 21.4453 20.7513 21.2955C20.3684 21.8947 19.9856 22.4924 19.6013 23.1279C19.2169 23.7635 18.8728 24.3626 18.5674 24.9982C18.0699 23.9133 17.6855 22.8662 17.3801 21.8554V21.8569ZM19.488 26.9818C19.9856 25.9725 20.5219 24.9618 21.1356 23.9525C21.7107 22.9796 22.3617 22.0081 23.0126 21.0352C24.1627 20.961 25.3112 20.9232 26.5 20.9232C27.726 20.9232 28.8761 20.961 29.9874 21.0352C30.6771 22.0081 31.2893 22.9796 31.8644 23.9525C32.4781 24.9618 33.0144 25.9725 33.512 26.9818C33.0144 27.9911 32.4781 29.0018 31.8644 30.0111C31.2893 30.984 30.6384 31.9555 29.9874 32.9284C28.8373 33.0026 27.6888 33.0404 26.5 33.0404C25.274 33.0404 24.124 33.0026 23.0126 32.9284C22.3229 31.9555 21.7107 30.984 21.1356 30.0111C20.5219 29.0004 19.9856 27.9911 19.488 26.9818ZM34.4698 24.9618L33.436 23.0916C33.0531 22.4561 32.7075 21.8569 32.2859 21.2592C33.4732 21.409 34.5845 21.5966 35.6571 21.8205C35.313 22.8676 34.9286 23.9147 34.4698 24.9633V24.9618ZM34.4698 29.0018C34.9301 30.0489 35.313 31.096 35.6571 32.1068C34.5845 32.3307 33.4732 32.5183 32.2859 32.6681C32.6688 32.069 33.0516 31.4712 33.436 30.8357C33.7816 30.2743 34.1257 29.6388 34.4698 29.0033V29.0018ZM35.3502 41.9814C35.0434 42.169 34.6605 42.2432 34.2389 42.2432C32.3619 42.2432 30.0246 40.7467 27.726 38.5028C28.8373 37.3437 29.9099 36.0334 30.9825 34.5747C32.7835 34.4249 34.5071 34.1631 36.1174 33.7894C36.3096 34.4627 36.4243 35.1361 36.539 35.8094C37.0753 38.9885 36.6537 41.2703 35.3517 41.9814H35.3502ZM37.3434 22.2684C41.6352 23.4653 44.202 25.2977 44.202 26.9818C44.202 28.4405 42.4396 29.8991 39.3366 31.0597C38.7229 31.2836 38.0346 31.509 37.3449 31.6952C36.8474 30.1609 36.2336 28.5903 35.4679 26.9818C36.2336 25.3734 36.8861 23.8027 37.3449 22.2684H37.3434ZM34.2777 11.7204C34.6992 11.7204 35.0434 11.7946 35.389 11.9822C36.6537 12.6934 37.1125 14.9373 36.5762 18.1542C36.4615 18.7898 36.3081 19.4631 36.1547 20.1743C34.5458 19.8369 32.8207 19.5751 31.0197 19.3889C29.9859 17.9303 28.8746 16.6214 27.7633 15.4609C30.0618 13.2533 32.3992 11.7204 34.2762 11.7204H34.2777ZM28.6451 19.2391C27.9554 19.2013 27.227 19.2013 26.5 19.2013C25.773 19.2013 25.0446 19.2013 24.3549 19.2391C25.0446 18.3418 25.773 17.5187 26.5 16.7334C27.2285 17.5187 27.9554 18.3797 28.6451 19.2391ZM17.6483 11.9822C17.9552 11.7946 18.338 11.7204 18.7596 11.7204C20.6366 11.7204 22.9739 13.2169 25.2725 15.4609C24.1612 16.62 23.0886 17.9288 22.016 19.3889C20.215 19.5387 18.4914 19.8005 16.8811 20.1743C16.6889 19.5009 16.5742 18.8276 16.4595 18.1542C15.9232 14.9751 16.3448 12.7312 17.6468 11.9822H17.6483ZM15.6566 31.6952C11.3648 30.4983 8.79805 28.6659 8.79805 26.9818C8.79805 25.5232 10.5604 24.0645 13.6634 22.9054C14.2771 22.6815 14.9654 22.4561 15.6551 22.2699C16.1526 23.8042 16.7664 25.3748 17.5321 26.9833C16.7664 28.5917 16.1139 30.2002 15.6551 31.6967L15.6566 31.6952ZM16.461 35.8094C16.5757 35.1739 16.7291 34.5005 16.8826 33.7894C18.4914 34.1268 20.2165 34.3886 22.0175 34.5747C23.0514 36.0334 24.1627 37.3422 25.274 38.5028C22.9754 40.7089 20.6381 42.2432 18.7611 42.2432C18.3395 42.2432 17.9954 42.169 17.6498 41.9814C16.3463 41.2703 15.9262 38.9885 16.4625 35.8094H16.461Z" fill="#363636"/>
<rect x="1.5" y="1.5" width="50" height="50" rx="7.5" stroke="#363636" stroke-width="3"/>
</svg>
